<svg width="16" height="16" viewBox="0 0 14 14" fill="none"
  xmlns="http://www.w3.org/2000/svg">
  <path fill-rule="evenodd" clip-rule="evenodd" d="M9.94561 3.31331H10.0822C11.8768 3.31331 13.3334 4.81331 13.3334 6.65331V10.3333C13.3334 12.1733 11.8768 13.6666 10.0822 13.6666H3.91788C2.12322 13.6666 0.666687 12.1733 0.666687 10.3333V6.65331C0.666687 4.81331 2.12322 3.31331 3.91788 3.31331H4.05443C4.06744 2.51331 4.37305 1.76665 4.92576 1.20665C5.48496 0.63998 6.20022 0.353313 7.00652 0.333313C8.61912 0.333313 9.9261 1.66665 9.94561 3.31331ZM5.60858 1.91998C5.24445 2.29331 5.04288 2.78665 5.02987 3.31331H8.97032C8.95082 2.21998 8.07949 1.33331 7.0066 1.33331C6.50591 1.33331 5.98572 1.53998 5.60858 1.91998ZM9.47101 5.87998C9.74411 5.87998 9.95869 5.65331 9.95869 5.37998V4.60665C9.95869 4.33331 9.74411 4.10664 9.47101 4.10664C9.20441 4.10664 8.98333 4.33331 8.98333 4.60665V5.37998C8.98333 5.65331 9.20441 5.87998 9.47101 5.87998ZM4.95834 5.37998C4.95834 5.65331 4.74376 5.87998 4.47066 5.87998C4.20406 5.87998 3.98298 5.65331 3.98298 5.37998V4.60664C3.98298 4.33331 4.20406 4.10664 4.47066 4.10664C4.74376 4.10664 4.95834 4.33331 4.95834 4.60664V5.37998Z" fill="#9593A0"/>
</svg>
