<svg width="50" height="50" viewBox="0 0 50 50" fill="none"
  xmlns="http://www.w3.org/2000/svg">
  <path fill-rule="evenodd" clip-rule="evenodd" d="M25 50C38.8071 50 50 38.8071 50 25C50 11.1929 38.8071 0 25 0C11.1929 0 0 11.1929 0 25C0 38.8071 11.1929 50 25 50Z" fill="#F4F6F9"/>
  <path fill-rule="evenodd" clip-rule="evenodd" d="M26.0635 32.8197V24.6589H28.3162L28.6147 21.8466H26.0635L26.0673 20.4391C26.0673 19.7056 26.137 19.3126 27.1905 19.3126H28.5988V16.5H26.3457C23.6395 16.5 22.6869 17.8642 22.6869 20.1585V21.8469H21V24.6592H22.6869V32.8197H26.0635Z" fill="url(#paint0_linear_1_2502)"/>
  <mask id="mask0_1_2502" style="mask-type:luminance" maskUnits="userSpaceOnUse" x="21" y="16" width="8" height="17">
    <path fill-rule="evenodd" clip-rule="evenodd" d="M26.0635 32.8197V24.6589H28.3162L28.6147 21.8466H26.0635L26.0673 20.4391C26.0673 19.7056 26.137 19.3126 27.1905 19.3126H28.5988V16.5H26.3457C23.6395 16.5 22.6869 17.8642 22.6869 20.1585V21.8469H21V24.6592H22.6869V32.8197H26.0635Z" fill="white"/>
  </mask>
  <g mask="url(#mask0_1_2502)">
    <rect x="10" y="10" width="30" height="30" fill="url(#paint1_linear_1_2502)"/>
  </g>
  <defs>
    <linearGradient id="paint0_linear_1_2502" x1="21" y1="24.6598" x2="28.6147" y2="24.6598" gradientUnits="userSpaceOnUse">
      <stop stop-color="#2C2D5B"/>
      <stop offset="1" stop-color="#9FA1FF"/>
    </linearGradient>
    <linearGradient id="paint1_linear_1_2502" x1="10" y1="25" x2="40" y2="25" gradientUnits="userSpaceOnUse">
      <stop stop-color="#2C2D5B"/>
      <stop offset="1" stop-color="#9FA1FF"/>
    </linearGradient>
  </defs>
</svg>
