<svg width="50" height="50" viewBox="0 0 50 50" fill="none"
  xmlns="http://www.w3.org/2000/svg">
  <path fill-rule="evenodd" clip-rule="evenodd" d="M25 50C38.8071 50 50 38.8071 50 25C50 11.1929 38.8071 0 25 0C11.1929 0 0 11.1929 0 25C0 38.8071 11.1929 50 25 50Z" fill="#F4F6F9"/>
  <path d="M24.9977 21.9987C23.3451 21.9987 21.9965 23.3474 21.9965 25C21.9965 26.6526 23.3451 28.0013 24.9977 28.0013C26.6504 28.0013 27.999 26.6526 27.999 25C27.999 23.3474 26.6504 21.9987 24.9977 21.9987ZM33.9993 25C33.9993 23.7572 34.0106 22.5256 33.9408 21.285C33.871 19.844 33.5423 18.5652 32.4886 17.5114C31.4326 16.4555 30.156 16.129 28.715 16.0592C27.4722 15.9894 26.2406 16.0007 25 16.0007C23.7572 16.0007 22.5256 15.9894 21.285 16.0592C19.844 16.129 18.5652 16.4577 17.5114 17.5114C16.4555 18.5674 16.129 19.844 16.0592 21.285C15.9894 22.5278 16.0007 23.7594 16.0007 25C16.0007 26.2406 15.9894 27.4744 16.0592 28.715C16.129 30.156 16.4577 31.4348 17.5114 32.4886C18.5674 33.5445 19.844 33.871 21.285 33.9408C22.5278 34.0106 23.7594 33.9993 25 33.9993C26.2428 33.9993 27.4744 34.0106 28.715 33.9408C30.156 33.871 31.4349 33.5423 32.4886 32.4886C33.5445 31.4326 33.871 30.156 33.9408 28.715C34.0128 27.4744 33.9993 26.2428 33.9993 25ZM24.9977 29.6179C22.4423 29.6179 20.3799 27.5555 20.3799 25C20.3799 22.4445 22.4423 20.3821 24.9977 20.3821C27.5532 20.3821 29.6156 22.4445 29.6156 25C29.6156 27.5555 27.5532 29.6179 24.9977 29.6179ZM29.8047 21.2715C29.2081 21.2715 28.7263 20.7897 28.7263 20.193C28.7263 19.5963 29.2081 19.1145 29.8047 19.1145C30.4014 19.1145 30.8832 19.5963 30.8832 20.193C30.8834 20.3347 30.8556 20.475 30.8015 20.6059C30.7474 20.7369 30.6679 20.8558 30.5677 20.956C30.4676 21.0562 30.3486 21.1356 30.2177 21.1897C30.0867 21.2439 29.9464 21.2717 29.8047 21.2715Z" fill="black"/>
  <mask id="mask0_1_2524" style="mask-type:luminance" maskUnits="userSpaceOnUse" x="16" y="16" width="19" height="18">
    <path d="M24.9977 21.9987C23.3451 21.9987 21.9965 23.3474 21.9965 25C21.9965 26.6526 23.3451 28.0013 24.9977 28.0013C26.6504 28.0013 27.999 26.6526 27.999 25C27.999 23.3474 26.6504 21.9987 24.9977 21.9987ZM33.9993 25C33.9993 23.7572 34.0106 22.5256 33.9408 21.285C33.871 19.844 33.5423 18.5652 32.4886 17.5114C31.4326 16.4555 30.156 16.129 28.715 16.0592C27.4722 15.9894 26.2406 16.0007 25 16.0007C23.7572 16.0007 22.5256 15.9894 21.285 16.0592C19.844 16.129 18.5652 16.4577 17.5114 17.5114C16.4555 18.5674 16.129 19.844 16.0592 21.285C15.9894 22.5278 16.0007 23.7594 16.0007 25C16.0007 26.2406 15.9894 27.4744 16.0592 28.715C16.129 30.156 16.4577 31.4348 17.5114 32.4886C18.5674 33.5445 19.844 33.871 21.285 33.9408C22.5278 34.0106 23.7594 33.9993 25 33.9993C26.2428 33.9993 27.4744 34.0106 28.715 33.9408C30.156 33.871 31.4349 33.5423 32.4886 32.4886C33.5445 31.4326 33.871 30.156 33.9408 28.715C34.0128 27.4744 33.9993 26.2428 33.9993 25ZM24.9977 29.6179C22.4423 29.6179 20.3799 27.5555 20.3799 25C20.3799 22.4445 22.4423 20.3821 24.9977 20.3821C27.5532 20.3821 29.6156 22.4445 29.6156 25C29.6156 27.5555 27.5532 29.6179 24.9977 29.6179ZM29.8047 21.2715C29.2081 21.2715 28.7263 20.7897 28.7263 20.193C28.7263 19.5963 29.2081 19.1145 29.8047 19.1145C30.4014 19.1145 30.8832 19.5963 30.8832 20.193C30.8834 20.3347 30.8556 20.475 30.8015 20.6059C30.7474 20.7369 30.6679 20.8558 30.5677 20.956C30.4676 21.0562 30.3486 21.1356 30.2177 21.1897C30.0867 21.2439 29.9464 21.2717 29.8047 21.2715Z" fill="white"/>
  </mask>
  <g mask="url(#mask0_1_2524)">
    <rect x="8.02466" y="7.02637" width="30" height="30" fill="url(#paint0_linear_1_2524)"/>
  </g>
  <defs>
    <linearGradient id="paint0_linear_1_2524" x1="8.02466" y1="22.0264" x2="38.0247" y2="22.0264" gradientUnits="userSpaceOnUse">
      <stop stop-color="#2C2D5B"/>
      <stop offset="1" stop-color="#9FA1FF"/>
    </linearGradient>
  </defs>
</svg>
