<svg width="50" height="50" viewBox="0 0 50 50" fill="none"
  xmlns="http://www.w3.org/2000/svg">
  <path fill-rule="evenodd" clip-rule="evenodd" d="M25 50C38.8071 50 50 38.8071 50 25C50 11.1929 38.8071 0 25 0C11.1929 0 0 11.1929 0 25C0 38.8071 11.1929 50 25 50Z" fill="#F4F6F9"/>
  <path fill-rule="evenodd" clip-rule="evenodd" d="M24.5508 22.1922L24.5822 22.7112L24.0576 22.6477C22.148 22.404 20.4798 21.5778 19.0633 20.1902L18.3709 19.5017L18.1925 20.0101C17.8148 21.1435 18.0561 22.3405 18.843 23.1455C19.2627 23.5904 19.1683 23.654 18.4443 23.3891C18.1925 23.3044 17.9721 23.2408 17.9512 23.2726C17.8777 23.3468 18.1295 24.3107 18.3289 24.692C18.6017 25.2217 19.1578 25.7407 19.7663 26.0479L20.2804 26.2915L19.6719 26.3021C19.0843 26.3021 19.0633 26.3127 19.1263 26.5351C19.3361 27.2236 20.165 27.9545 21.0883 28.2723L21.7388 28.4947L21.1723 28.8337C20.3329 29.321 19.3466 29.5964 18.3604 29.6175C17.8882 29.6281 17.5 29.6705 17.5 29.7023C17.5 29.8082 18.78 30.4014 19.525 30.6344C21.7598 31.3229 24.4144 31.0264 26.4079 29.8506C27.8243 29.0138 29.2408 27.3507 29.9018 25.7407C30.2585 24.8827 30.6152 23.315 30.6152 22.5629C30.6152 22.0757 30.6467 22.0121 31.2343 21.4295C31.5805 21.0906 31.9058 20.7198 31.9687 20.6139C32.0737 20.4126 32.0632 20.4126 31.5281 20.5927C30.6362 20.9105 30.5103 20.8681 30.951 20.3915C31.2762 20.0525 31.6645 19.4381 31.6645 19.2581C31.6645 19.2263 31.5071 19.2792 31.3287 19.3746C31.1398 19.4805 30.7202 19.6394 30.4054 19.7347L29.8388 19.9148L29.3247 19.5652C29.0414 19.3746 28.6427 19.1627 28.4329 19.0992C27.8978 18.9509 27.0794 18.9721 26.5967 19.1415C25.2852 19.6182 24.4563 20.8469 24.5508 22.1922Z" fill="url(#paint0_linear_1_2509)"/>
  <mask id="mask0_1_2509" style="mask-type:luminance" maskUnits="userSpaceOnUse" x="17" y="19" width="16" height="12">
    <path fill-rule="evenodd" clip-rule="evenodd" d="M24.5508 22.1922L24.5822 22.7112L24.0576 22.6477C22.148 22.404 20.4798 21.5778 19.0633 20.1902L18.3709 19.5017L18.1925 20.0101C17.8148 21.1435 18.0561 22.3405 18.843 23.1455C19.2627 23.5904 19.1683 23.654 18.4443 23.3891C18.1925 23.3044 17.9721 23.2408 17.9512 23.2726C17.8777 23.3468 18.1295 24.3107 18.3289 24.692C18.6017 25.2217 19.1578 25.7407 19.7663 26.0479L20.2804 26.2915L19.6719 26.3021C19.0843 26.3021 19.0633 26.3127 19.1263 26.5351C19.3361 27.2236 20.165 27.9545 21.0883 28.2723L21.7388 28.4947L21.1723 28.8337C20.3329 29.321 19.3466 29.5964 18.3604 29.6175C17.8882 29.6281 17.5 29.6705 17.5 29.7023C17.5 29.8082 18.78 30.4014 19.525 30.6344C21.7598 31.3229 24.4144 31.0264 26.4079 29.8506C27.8243 29.0138 29.2408 27.3507 29.9018 25.7407C30.2585 24.8827 30.6152 23.315 30.6152 22.5629C30.6152 22.0757 30.6467 22.0121 31.2343 21.4295C31.5805 21.0906 31.9058 20.7198 31.9687 20.6139C32.0737 20.4126 32.0632 20.4126 31.5281 20.5927C30.6362 20.9105 30.5103 20.8681 30.951 20.3915C31.2762 20.0525 31.6645 19.4381 31.6645 19.2581C31.6645 19.2263 31.5071 19.2792 31.3287 19.3746C31.1398 19.4805 30.7202 19.6394 30.4054 19.7347L29.8388 19.9148L29.3247 19.5652C29.0414 19.3746 28.6427 19.1627 28.4329 19.0992C27.8978 18.9509 27.0794 18.9721 26.5967 19.1415C25.2852 19.6182 24.4563 20.8469 24.5508 22.1922Z" fill="white"/>
  </mask>
  <g mask="url(#mask0_1_2509)">
    <rect x="10" y="10" width="30" height="30" fill="url(#paint1_linear_1_2509)"/>
  </g>
  <defs>
    <linearGradient id="paint0_linear_1_2509" x1="17.5" y1="25" x2="32.021" y2="25" gradientUnits="userSpaceOnUse">
      <stop stop-color="#2C2D5B"/>
      <stop offset="1" stop-color="#9FA1FF"/>
    </linearGradient>
    <linearGradient id="paint1_linear_1_2509" x1="10" y1="25" x2="40" y2="25" gradientUnits="userSpaceOnUse">
      <stop stop-color="#2C2D5B"/>
      <stop offset="1" stop-color="#9FA1FF"/>
    </linearGradient>
  </defs>
</svg>
