<svg width="50" height="50" viewBox="0 0 50 50" fill="none"
  xmlns="http://www.w3.org/2000/svg">
  <path fill-rule="evenodd" clip-rule="evenodd" d="M25 50C38.8071 50 50 38.8071 50 25C50 11.1929 38.8071 0 25 0C11.1929 0 0 11.1929 0 25C0 38.8071 11.1929 50 25 50Z" fill="#F4F6F9"/>
  <path d="M16.0036 34L17.2204 29.5288C16.4186 28.1544 15.9974 26.5912 16 25C16 20.0293 20.0293 16 25 16C29.9707 16 34 20.0293 34 25C34 29.9707 29.9707 34 25 34C23.4095 34.0026 21.847 33.5816 20.473 32.7805L16.0036 34ZM21.7519 20.7772C21.6357 20.7844 21.5221 20.815 21.418 20.8672C21.3204 20.9225 21.2313 20.9916 21.1534 21.0724C21.0454 21.1741 20.9842 21.2623 20.9185 21.3478C20.5859 21.7807 20.407 22.3121 20.41 22.858C20.4118 23.299 20.527 23.7283 20.707 24.1297C21.0751 24.9415 21.6808 25.801 22.4809 26.5975C22.6735 26.7892 22.8616 26.9818 23.0641 27.1609C24.0572 28.0352 25.2405 28.6657 26.5201 29.0023L27.0322 29.0806C27.1987 29.0896 27.3652 29.077 27.5326 29.0689C27.7947 29.0554 28.0507 28.9844 28.2823 28.861C28.4002 28.8003 28.5152 28.7342 28.627 28.663C28.627 28.663 28.6657 28.6378 28.7395 28.582C28.861 28.492 28.9357 28.4281 29.0365 28.3228C29.1112 28.2454 29.176 28.1545 29.2255 28.051C29.2957 27.9043 29.3659 27.6244 29.3947 27.3913C29.4163 27.2131 29.41 27.1159 29.4073 27.0556C29.4037 26.9593 29.3236 26.8594 29.2363 26.8171L28.7125 26.5822C28.7125 26.5822 27.9295 26.2411 27.4516 26.0233C27.4012 26.0013 27.3472 25.9888 27.2923 25.9864C27.2307 25.9801 27.1685 25.987 27.1098 26.0067C27.0512 26.0264 26.9974 26.0585 26.9521 26.1007V26.0989C26.9476 26.0989 26.8873 26.1502 26.2366 26.9386C26.1993 26.9888 26.1478 27.0267 26.0888 27.0475C26.0298 27.0684 25.966 27.0712 25.9054 27.0556C25.8468 27.0399 25.7893 27.0201 25.7335 26.9962C25.6219 26.9494 25.5832 26.9314 25.5067 26.8981L25.5022 26.8963C24.9873 26.6715 24.5106 26.3679 24.0892 25.9963C23.9758 25.8973 23.8705 25.7893 23.7625 25.6849C23.4084 25.3458 23.0999 24.9622 22.8445 24.5437L22.7914 24.4582C22.7533 24.4007 22.7224 24.3388 22.6996 24.2737C22.6654 24.1414 22.7545 24.0352 22.7545 24.0352C22.7545 24.0352 22.9732 23.7958 23.0749 23.6662C23.1596 23.5585 23.2386 23.4464 23.3116 23.3305C23.4178 23.1595 23.4511 22.984 23.3953 22.8481C23.1433 22.2325 22.8823 21.6196 22.6141 21.0112C22.561 20.8906 22.4035 20.8042 22.2604 20.7871C22.2118 20.7817 22.1632 20.7763 22.1146 20.7727C21.9937 20.7667 21.8726 20.7679 21.7519 20.7763V20.7772Z" fill="black"/>
  <mask id="mask0_1_2516" style="mask-type:luminance" maskUnits="userSpaceOnUse" x="16" y="16" width="18" height="18">
    <path d="M16.0036 34L17.2204 29.5288C16.4186 28.1544 15.9974 26.5912 16 25C16 20.0293 20.0293 16 25 16C29.9707 16 34 20.0293 34 25C34 29.9707 29.9707 34 25 34C23.4095 34.0026 21.847 33.5816 20.473 32.7805L16.0036 34ZM21.7519 20.7772C21.6357 20.7844 21.5221 20.815 21.418 20.8672C21.3204 20.9225 21.2313 20.9916 21.1534 21.0724C21.0454 21.1741 20.9842 21.2623 20.9185 21.3478C20.5859 21.7807 20.407 22.3121 20.41 22.858C20.4118 23.299 20.527 23.7283 20.707 24.1297C21.0751 24.9415 21.6808 25.801 22.4809 26.5975C22.6735 26.7892 22.8616 26.9818 23.0641 27.1609C24.0572 28.0352 25.2405 28.6657 26.5201 29.0023L27.0322 29.0806C27.1987 29.0896 27.3652 29.077 27.5326 29.0689C27.7947 29.0554 28.0507 28.9844 28.2823 28.861C28.4002 28.8003 28.5152 28.7342 28.627 28.663C28.627 28.663 28.6657 28.6378 28.7395 28.582C28.861 28.492 28.9357 28.4281 29.0365 28.3228C29.1112 28.2454 29.176 28.1545 29.2255 28.051C29.2957 27.9043 29.3659 27.6244 29.3947 27.3913C29.4163 27.2131 29.41 27.1159 29.4073 27.0556C29.4037 26.9593 29.3236 26.8594 29.2363 26.8171L28.7125 26.5822C28.7125 26.5822 27.9295 26.2411 27.4516 26.0233C27.4012 26.0013 27.3472 25.9888 27.2923 25.9864C27.2307 25.9801 27.1685 25.987 27.1098 26.0067C27.0512 26.0264 26.9974 26.0585 26.9521 26.1007V26.0989C26.9476 26.0989 26.8873 26.1502 26.2366 26.9386C26.1993 26.9888 26.1478 27.0267 26.0888 27.0475C26.0298 27.0684 25.966 27.0712 25.9054 27.0556C25.8468 27.0399 25.7893 27.0201 25.7335 26.9962C25.6219 26.9494 25.5832 26.9314 25.5067 26.8981L25.5022 26.8963C24.9873 26.6715 24.5106 26.3679 24.0892 25.9963C23.9758 25.8973 23.8705 25.7893 23.7625 25.6849C23.4084 25.3458 23.0999 24.9622 22.8445 24.5437L22.7914 24.4582C22.7533 24.4007 22.7224 24.3388 22.6996 24.2737C22.6654 24.1414 22.7545 24.0352 22.7545 24.0352C22.7545 24.0352 22.9732 23.7958 23.0749 23.6662C23.1596 23.5585 23.2386 23.4464 23.3116 23.3305C23.4178 23.1595 23.4511 22.984 23.3953 22.8481C23.1433 22.2325 22.8823 21.6196 22.6141 21.0112C22.561 20.8906 22.4035 20.8042 22.2604 20.7871C22.2118 20.7817 22.1632 20.7763 22.1146 20.7727C21.9937 20.7667 21.8726 20.7679 21.7519 20.7763V20.7772Z" fill="white"/>
  </mask>
  <g mask="url(#mask0_1_2516)">
    <rect x="11" y="11" width="30" height="30" fill="url(#paint0_linear_1_2516)"/>
  </g>
  <defs>
    <linearGradient id="paint0_linear_1_2516" x1="11" y1="26" x2="41" y2="26" gradientUnits="userSpaceOnUse">
      <stop stop-color="#2C2D5B"/>
      <stop offset="1" stop-color="#9FA1FF"/>
    </linearGradient>
  </defs>
</svg>
